name Run_200 02_newCOP3_v24.mot
datacolumns 19
datarows 100
range 1.4675 1.517
DataType=double
version=3
OpenSimVersion=4.3-2021-08-27-4bc7ad9
endheader
time	R_ground_force_vx	R_ground_force_vy	R_ground_force_vz	R_ground_force_px	R_ground_force_py	R_ground_force_pz	L_ground_force_vx	L_ground_force_vy	L_ground_force_vz	L_ground_force_px	L_ground_force_py	L_ground_force_pz	R_ground_torque_x	R_ground_torque_y	R_ground_torque_z	L_ground_torque_x	L_ground_torque_y	L_ground_torque_z
1.4675	-0.12222	0.174601	0.093017	0	0	0	-13.020234	1111.596191	101.003548	0.977208	0	-0.6103189999999999	0	0	0	-0	2.735087	-0
1.468	-0.122109	0.174441	0.09297999999999999	0	0	0	-12.358141	1109.660522	100.65963	0.976571	0	-0.6103420000000001	0	0	0	-0	2.732264	-0
1.4685	-0.121775	0.173964	0.09286800000000001	0	0	0	-11.69742	1107.697632	100.312477	0.975934	0	-0.610365	0	0	0	-0	2.729521	-0
1.469	-0.121221	0.173173	0.092682	0	0	0	-11.038081	1105.70813	99.962097	0.975297	0	-0.610388	0	0	0	-0	2.726862	-0
1.4695	-0.12045	0.172072	0.092421	0	0	0	-10.380114	1103.692139	99.608498	0.97466	0	-0.610411	0	0	0	-0	2.724294	-0
1.47	-0.119467	0.170667	0.092086	0	0	0	-9.723482000000001	1101.650269	99.25168600000001	0.974023	0	-0.610433	0	0	0	-0	2.72182	-0
1.4705	-0.118278	0.168968	0.091679	0	0	0	-9.068128	1099.583008	98.891685	0.973386	0	-0.610456	0	0	0	-0	2.719446	-0
1.471	-0.11689	0.166985	0.0912	0	0	0	-8.413968000000001	1097.490723	98.52851099999999	0.972749	0	-0.610478	0	0	0	-0	2.717176	-0
1.4715	-0.115311	0.16473	0.09064999999999999	0	0	0	-7.760897	1095.373901	98.16218600000001	0.9721109999999999	0	-0.610501	0	0	0	-0	2.715014	-0
1.472	-0.11355	0.162215	0.090032	0	0	0	-7.108782	1093.23291	97.792732	0.971473	0	-0.610523	0	0	0	-0	2.712965	-0
1.4725	-0.111618	0.159455	0.089347	0	0	0	-6.457471	1091.068237	97.420181	0.970834	0	-0.610545	0	0	0	-0	2.711033	-0
1.473	-0.109526	0.156466	0.088597	0	0	0	-5.806787	1088.880493	97.044563	0.970195	0	-0.610567	0	0	0	-0	2.709221	-0
1.4735	-0.107285	0.153264	0.087783	0	0	0	-5.156537	1086.669922	96.665909	0.969554	0	-0.610589	0	0	0	-0	2.707534	-0
1.474	-0.104908	0.149868	0.086908	0	0	0	-4.506505	1084.437134	96.28426399999999	0.9689140000000001	0	-0.61061	0	0	0	-0	2.705975	-0
1.4745	-0.102406	0.146295	0.085975	0	0	0	-3.856463	1082.182373	95.899666	0.968272	0	-0.610631	0	0	0	-0	2.704547	-0
1.475	-0.09979399999999999	0.142563	0.084984	0	0	0	-3.206167	1079.906372	95.51216100000001	0.967629	0	-0.610652	0	0	0	-0	2.703254	-0
1.4755	-0.097084	0.138691	0.08394	0	0	0	-2.555365	1077.609253	95.121788	0.966985	0	-0.610673	0	0	0	-0	2.702099	-0
1.476	-0.094289	0.134699	0.082844	0	0	0	-1.903794	1075.291748	94.7286	0.9663389999999999	0	-0.610694	0	0	0	-0	2.701085	-0
1.4765	-0.091423	0.130605	0.08169999999999999	0	0	0	-1.251185	1072.954224	94.332649	0.965693	0	-0.610714	0	0	0	-0	2.700214	-0
1.477	-0.0885	0.126428	0.08051	0	0	0	-0.597266	1070.596924	93.93398999999999	0.965044	0	-0.610734	0	0	0	-0	2.699488	-0
1.4775	-0.08552999999999999	0.122186	0.079276	0	0	0	0.058233	1068.220459	93.53267700000001	0.964395	0	-0.610754	0	0	0	-0	2.698911	-0
1.478	-0.082528	0.117897	0.078003	0	0	0	0.7155860000000001	1065.825195	93.12876900000001	0.963743	0	-0.610773	0	0	0	-0	2.698485	-0
1.4785	-0.07950500000000001	0.113579	0.076692	0	0	0	1.375059	1063.411621	92.72232099999999	0.963089	0	-0.610792	0	0	0	-0	2.69821	-0
1.479	-0.076474	0.109248	0.075347	0	0	0	2.036916	1060.97998	92.313393	0.962433	0	-0.610811	0	0	0	-0	2.69809	-0
1.4795	-0.073444	0.10492	0.073971	0	0	0	2.701413	1058.53064	91.90205400000001	0.961775	0	-0.610829	0	0	0	-0	2.698125	-0
1.48	-0.070427	0.10061	0.07256600000000001	0	0	0	3.368799	1056.064087	91.488373	0.9611150000000001	0	-0.610847	0	0	0	-0	2.698317	-0
1.4805	-0.06743200000000001	0.096332	0.071136	0	0	0	4.039316	1053.580688	91.07240299999999	0.960452	0	-0.610865	0	0	0	-0	2.698668	-0
1.481	-0.064469	0.092099	0.069685	0	0	0	4.713193	1051.080688	90.654213	0.9597869999999999	0	-0.610882	0	0	0	-0	2.699177	-0
1.4815	-0.061546	0.087923	0.068213	0	0	0	5.390655	1048.564575	90.23387099999999	0.959118	0	-0.610899	0	0	0	-0	2.699846	-0
1.482	-0.058671	0.083815	0.06672599999999999	0	0	0	6.071915	1046.032471	89.811455	0.958447	0	-0.610916	0	0	0	-0	2.700676	-0
1.4825	-0.055851	0.079786	0.06522500000000001	0	0	0	6.757177	1043.484619	89.387016	0.957773	0	-0.610932	0	0	0	-0	2.701666	-0
1.483	-0.053091	0.075845	0.06371300000000001	0	0	0	7.446638	1040.921631	88.96064	0.9570959999999999	0	-0.610948	0	0	0	-0	2.702818	-0
1.4835	-0.050399	0.07199800000000001	0.062194	0	0	0	8.140487	1038.343384	88.53237900000001	0.956415	0	-0.610963	0	0	0	-0	2.704131	-0
1.484	-0.047778	0.068254	0.060669	0	0	0	8.838905	1035.750366	88.102318	0.955731	0	-0.610978	0	0	0	-0	2.705604	-0
1.4845	-0.045232	0.06461799999999999	0.059142	0	0	0	9.542068	1033.1427	87.670517	0.955043	0	-0.610993	0	0	0	-0	2.707238	-0
1.485	-0.042766	0.061095	0.057615	0	0	0	10.250145	1030.52063	87.237053	0.9543509999999999	0	-0.611007	0	0	0	-0	2.709032	-0
1.4855	-0.040382	0.057689	0.056091	0	0	0	10.9633	1027.884399	86.80199399999999	0.9536559999999999	0	-0.611021	0	0	0	-0	2.710985	-0
1.486	-0.038082	0.054403	0.054571	0	0	0	11.681691	1025.234009	86.365402	0.952956	0	-0.611035	0	0	0	-0	2.713096	-0
1.4865	-0.035868	0.05124	0.053059	0	0	0	12.405473	1022.569763	85.927345	0.952253	0	-0.611048	0	0	0	-0	2.715364	-0
1.487	-0.03374	0.048201	0.051556	0	0	0	13.134796	1019.891724	85.48790700000001	0.951545	0	-0.61106	0	0	0	-0	2.717787	-0
1.4875	-0.031701	0.045287	0.050065	0	0	0	13.869803	1017.199951	85.04714199999999	0.950833	0	-0.6110719999999999	0	0	0	-0	2.720365	-0
1.488	-0.029748	0.042498	0.048587	0	0	0	14.610635	1014.49469	84.605125	0.950117	0	-0.611084	0	0	0	-0	2.723095	-0
1.4885	-0.027884	0.039834	0.047125	0	0	0	15.35742	1011.77594	84.161911	0.949396	0	-0.6110950000000001	0	0	0	-0	2.725976	-0
1.489	-0.026105	0.037293	0.04568	0	0	0	16.110283	1009.043701	83.717583	0.948671	0	-0.611106	0	0	0	-0	2.729006	-0
1.4895	-0.024412	0.034875	0.044254	0	0	0	16.869337	1006.298157	83.272194	0.94794	0	-0.611117	0	0	0	-0	2.732183	-0
1.49	-0.022804	0.032576	0.042848	0	0	0	17.634684	1003.539246	82.825813	0.947205	0	-0.611127	0	0	0	-0	2.735503	-0
1.4905	-0.021277	0.030396	0.041464	0	0	0	18.406414	1000.767029	82.378494	0.946466	0	-0.611136	0	0	0	-0	2.738965	-0
1.491	-0.019832	0.028331	0.040104	0	0	0	19.184597	997.981506	81.930313	0.945721	0	-0.611145	0	0	0	-0	2.742565	-0
1.4915	-0.018464	0.026377	0.038768	0	0	0	19.96929	995.182678	81.481331	0.944972	0	-0.6111529999999999	0	0	0	-0	2.746302	-0
1.492	-0.017173	0.024533	0.037458	0	0	0	20.760525	992.370544	81.031593	0.944218	0	-0.611161	0	0	0	-0	2.750172	-0
1.4925	-0.015956	0.022794	0.036174	0	0	0	21.558313	989.544983	80.581177	0.943459	0	-0.611169	0	0	0	-0	2.754172	-0
1.493	-0.01481	0.021157	0.034919	0	0	0	22.362638	986.706055	80.130127	0.9426949999999999	0	-0.611175	0	0	0	-0	2.758299	-0
1.4935	-0.013732	0.019617	0.033692	0	0	0	23.17346	983.853638	79.67849699999999	0.941926	0	-0.611182	0	0	0	-0	2.762549	-0
1.494	-0.012721	0.018172	0.032495	0	0	0	23.990704	980.9877320000001	79.226364	0.941152	0	-0.611188	0	0	0	-0	2.766918	-0
1.4945	-0.011772	0.016817	0.031328	0	0	0	24.814266	978.108154	78.773758	0.940374	0	-0.611193	0	0	0	-0	2.771404	-0
1.495	-0.010884	0.015548	0.030191	0	0	0	25.644011	975.214905	78.320747	0.93959	0	-0.611197	0	0	0	-0	2.776002	-0
1.4955	-0.010053	0.014361	0.029086	0	0	0	26.479765	972.307922	77.867378	0.938802	0	-0.611201	0	0	0	-0	2.780709	-0
1.496	-0.009278	0.013253	0.028013	0	0	0	27.321323	969.386963	77.413704	0.938009	0	-0.611205	0	0	0	-0	2.78552	-0
1.4965	-0.008554000000000001	0.012219	0.026972	0	0	0	28.168446	966.451965	76.95977000000001	0.937212	0	-0.611208	0	0	0	-0	2.790432	-0
1.497	-0.00788	0.011256	0.025963	0	0	0	29.020859	963.502869	76.50563	0.936409	0	-0.61121	0	0	0	-0	2.795439	-0
1.4975	-0.007253	0.01036	0.024988	0	0	0	29.878254	960.539429	76.051323	0.935603	0	-0.611212	0	0	0	-0	2.800538	-0
1.498	-0.00667	0.009527000000000001	0.024045	0	0	0	30.740294	957.561584	75.596901	0.934791	0	-0.611213	0	0	0	-0	2.805725	-0
1.4985	-0.006128	0.008754	0.023136	0	0	0	31.606606	954.569153	75.14241	0.933975	0	-0.611213	0	0	0	-0	2.810994	-0
1.499	-0.005626	0.008036	0.022259	0	0	0	32.476795	951.5618899999999	74.687889	0.933155	0	-0.611213	0	0	0	-0	2.816341	-0
1.4995	-0.005161	0.007372	0.021417	0	0	0	33.350445	948.539734	74.23337600000001	0.932331	0	-0.611212	0	0	0	-0	2.821762	-0
1.5	-0.004731	0.006757	0.020607	0	0	0	34.227104	945.502502	73.778915	0.931503	0	-0.61121	0	0	0	-0	2.827251	-0
1.5005	-0.004334	0.006189	0.019831	0	0	0	35.106319	942.44989	73.32455400000001	0.93067	0	-0.611208	0	0	0	-0	2.832804	-0
1.501	-0.003966	0.005664	0.019088	0	0	0	35.987614	939.381836	72.870316	0.929833	0	-0.611205	0	0	0	-0	2.838416	-0
1.5015	-0.003628	0.005181	0.018379	0	0	0	36.870502	936.298096	72.416252	0.928993	0	-0.611201	0	0	0	-0	2.844082	-0
1.502	-0.003316	0.004735	0.017702	0	0	0	37.754498	933.198425	71.96238700000001	0.928149	0	-0.611196	0	0	0	-0	2.849797	-0
1.5025	-0.003029	0.004324	0.017059	0	0	0	38.639095	930.082642	71.50876599999999	0.927301	0	-0.611191	0	0	0	-0	2.855556	-0
1.503	-0.002765	0.003947	0.016448	0	0	0	39.523815	926.950562	71.05542	0.926449	0	-0.611185	0	0	0	-0	2.861354	-0
1.5035	-0.002523	0.003601	0.01587	0	0	0	40.408161	923.8019410000001	70.602379	0.925594	0	-0.611179	0	0	0	-0	2.867186	-0
1.504	-0.002301	0.003283	0.015325	0	0	0	41.291656	920.636536	70.149681	0.924736	0	-0.611171	0	0	0	-0	2.873045	-0
1.5045	-0.002097	0.002991	0.014812	0	0	0	42.173832	917.454163	69.69735	0.923875	0	-0.611163	0	0	0	-0	2.878928	-0
1.505	-0.001911	0.002724	0.014332	0	0	0	43.05423	914.254578	69.24543	0.92301	0	-0.611154	0	0	0	-0	2.88483	-0
1.5055	-0.00174	0.002481	0.013884	0	0	0	43.932415	911.037598	68.793938	0.922142	0	-0.611144	0	0	0	-0	2.890743	-0
1.506	-0.001585	0.002258	0.013467	0	0	0	44.807964	907.80304	68.34290300000001	0.921272	0	-0.611134	0	0	0	-0	2.896665	-0
1.5065	-0.001443	0.002055	0.013083	0	0	0	45.680477	904.550598	67.892365	0.920399	0	-0.6111220000000001	0	0	0	-0	2.902589	-0
1.507	-0.001314	0.00187	0.01273	0	0	0	46.549564	901.28009	67.442345	0.919523	0	-0.61111	0	0	0	-0	2.908509	-0
1.5075	-0.001197	0.001701	0.012409	0	0	0	47.414867	897.9913330000001	66.992874	0.918644	0	-0.611097	0	0	0	-0	2.914422	-0
1.508	-0.001091	0.001549	0.012119	0	0	0	48.276035	894.684082	66.543983	0.917764	0	-0.611084	0	0	0	-0	2.920321	-0
1.5085	-0.000995	0.00141	0.011861	0	0	0	49.132744	891.358215	66.095688	0.9168809999999999	0	-0.611069	0	0	0	-0	2.9262	-0
1.509	-0.000908	0.001285	0.011634	0	0	0	49.984684	888.01355	65.64801799999999	0.915996	0	-0.611054	0	0	0	-0	2.932056	-0
1.5095	-0.00083	0.001172	0.011439	0	0	0	50.831558	884.64978	65.20101200000001	0.915109	0	-0.611038	0	0	0	-0	2.937883	-0
1.51	-0.00076	0.00107	0.011274	0	0	0	51.673088	881.2669069999999	64.754677	0.914221	0	-0.611021	0	0	0	-0	2.943676	-0
1.5105	-0.000697	0.0009790000000000001	0.011142	0	0	0	52.509003	877.864624	64.309059	0.913331	0	-0.611004	0	0	0	-0	2.949428	-0
1.511	-0.000642	0.000898	0.01104	0	0	0	53.339035	874.442871	63.86417	0.912439	0	-0.610986	0	0	0	-0	2.955136	-0
1.5115	-0.000593	0.000826	0.01097	0	0	0	54.162941	871.001526	63.42004	0.911546	0	-0.610967	0	0	0	-0	2.960794	-0
1.512	-0.00055	0.000762	0.010932	0	0	0	54.980457	867.540405	62.976696	0.910652	0	-0.610948	0	0	0	-0	2.966398	-0
1.5125	-0.000513	0.000706	0.010925	0	0	0	55.791344	864.059509	62.534161	0.909757	0	-0.610927	0	0	0	-0	2.971942	-0
1.513	-0.000481	0.0006579999999999999	0.01095	0	0	0	56.595348	860.558594	62.092461	0.9088619999999999	0	-0.610907	0	0	0	-0	2.977421	-0
1.5135	-0.000454	0.000616	0.011007	0	0	0	57.392212	857.037659	61.651623	0.907965	0	-0.610885	0	0	0	-0	2.98283	-0
1.514	-0.000433	0.000581	0.011097	0	0	0	58.181683	853.496704	61.211678	0.907068	0	-0.610863	0	0	0	-0	2.988166	-0
1.5145	-0.000415	0.000553	0.011219	0	0	0	58.963497	849.935608	60.77264	0.9061709999999999	0	-0.610841	0	0	0	-0	2.993422	-0
1.515	-0.000403	0.00053	0.011374	0	0	0	59.737381	846.3543089999999	60.334549	0.905274	0	-0.6108170000000001	0	0	0	-0	2.998594	-0
1.5155	-0.000395	0.000514	0.011562	0	0	0	60.503059	842.752869	59.897423	0.904376	0	-0.6107939999999999	0	0	0	-0	3.003678	-0
1.516	-0.000391	0.000502	0.011784	0	0	0	61.260242	839.131287	59.461288	0.903479	0	-0.61077	0	0	0	-0	3.00867	-0
1.5165	-0.000391	0.000497	0.01204	0	0	0	62.008636	835.489502	59.026173	0.902582	0	-0.610745	0	0	0	-0	3.013564	-0
1.517	-0.000396	0.000497	0.012331	0	0	0	62.747936	831.827637	58.59211	0.901685	0	-0.61072	0	0	0	-0	3.018357	-0
